<svg width="100" height="100" viewBox="0 0 100 100" fill="none" xmlns="http://www.w3.org/2000/svg">
<path fill-rule="evenodd" clip-rule="evenodd" d="M50 0C22.3858 0 0 22.3858 0 50C0 77.6142 22.3858 100 50 100C77.6142 100 100 77.6142 100 50C100 22.3858 77.6142 0 50 0ZM39.0068 23.4944C41.8508 23.365 42.7599 23.3333 49.9983 23.3333C57.239 23.3333 58.1448 23.365 60.9887 23.4944C63.8276 23.6244 65.7666 24.0739 67.4666 24.7333C69.2221 25.4139 70.7055 26.325 72.1888 27.8084C73.6722 29.2906 74.5833 30.7784 75.2667 32.5323C75.9222 34.2279 76.3722 36.1657 76.5056 39.0046C76.6333 41.8491 76.6667 42.758 76.6667 50.0003C76.6667 57.2426 76.6333 58.1493 76.5056 60.9937C76.3722 63.8315 75.9222 65.7699 75.2667 67.466C74.5833 69.2194 73.6722 70.7072 72.1888 72.1894C70.7072 73.6727 69.2216 74.5861 67.4682 75.2672C65.7716 75.9267 63.8315 76.3761 60.9926 76.5061C58.1481 76.6356 57.242 76.6672 49.9992 76.6672C42.7574 76.6672 41.8491 76.6356 39.0046 76.5061C36.1662 76.3761 34.2279 75.9267 32.5312 75.2672C30.7784 74.5861 29.2906 73.6727 27.8089 72.1894C26.3261 70.7072 25.415 69.2194 24.7333 67.4655C24.0745 65.7699 23.625 63.8321 23.4944 60.9932C23.3656 58.1487 23.3333 57.2426 23.3333 50.0003C23.3333 42.758 23.3667 41.8485 23.4939 39.0041C23.6217 36.1662 24.0717 34.2279 24.7328 32.5318C25.4161 30.7784 26.3273 29.2906 27.8106 27.8084C29.2928 26.3256 30.7806 25.4145 32.5345 24.7333C34.2301 24.0739 36.1679 23.6244 39.0068 23.4944ZM49.9983 23.3333C49.9997 23.3333 50.0011 23.3333 50.0025 23.3333H49.9942C49.9956 23.3333 49.9969 23.3333 49.9983 23.3333Z" fill="#ECECEC"/>
<path fill-rule="evenodd" clip-rule="evenodd" d="M47.6102 28.139C48.0747 28.1383 48.5744 28.1385 49.1137 28.1387L50.0025 28.139C57.1225 28.139 57.9664 28.1645 60.7781 28.2923C63.3782 28.4112 64.7893 28.8457 65.7293 29.2107C66.9737 29.694 67.861 30.2718 68.7938 31.2051C69.7271 32.1385 70.3049 33.0274 70.7893 34.2718C71.1543 35.2107 71.5893 36.6219 71.7077 39.2219C71.8355 42.033 71.8632 42.8775 71.8632 49.9942C71.8632 57.111 71.8355 57.9554 71.7077 60.7666C71.5888 63.3666 71.1543 64.7777 70.7893 65.7166C70.306 66.9611 69.7271 67.8472 68.7938 68.78C67.8604 69.7133 66.9743 70.2911 65.7293 70.7744C64.7904 71.1411 63.3782 71.5744 60.7781 71.6933C57.967 71.8211 57.1225 71.8489 50.0025 71.8489C42.8818 71.8489 42.0379 71.8211 39.2268 71.6933C36.6268 71.5733 35.2156 71.1389 34.2751 70.7739C33.0306 70.2905 32.1417 69.7128 31.2084 68.7794C30.275 67.8461 29.6972 66.9594 29.2128 65.7144C28.8478 64.7755 28.4128 63.3644 28.2944 60.7643C28.1667 57.9532 28.1411 57.1087 28.1411 49.9876C28.1411 42.8664 28.1667 42.0264 28.2944 39.2152C28.4133 36.6152 28.8478 35.2041 29.2128 34.2641C29.6961 33.0196 30.275 32.1307 31.2084 31.1974C32.1417 30.264 33.0306 29.6862 34.2751 29.2018C35.2151 28.8351 36.6268 28.4018 39.2268 28.2823C41.6868 28.1712 42.6402 28.1379 47.6102 28.1323V28.139ZM64.237 32.5668C62.4704 32.5668 61.037 33.9985 61.037 35.7657C61.037 37.5324 62.4704 38.9658 64.237 38.9658C66.0037 38.9658 67.4371 37.5324 67.4371 35.7657C67.4371 33.9991 66.0037 32.5657 64.237 32.5657V32.5668ZM36.3079 50.0003C36.3079 42.4375 42.4396 36.3057 50.0025 36.3057H50.0019C57.5648 36.3057 63.6948 42.4375 63.6948 50.0003C63.6948 57.5632 57.5653 63.6921 50.0025 63.6921C42.4396 63.6921 36.3079 57.5632 36.3079 50.0003Z" fill="#ECECEC"/>
<path d="M50.0025 41.1113C54.9114 41.1113 58.8915 45.0908 58.8915 50.0003C58.8915 54.9092 54.9114 58.8893 50.0025 58.8893C45.093 58.8893 41.1135 54.9092 41.1135 50.0003C41.1135 45.0908 45.093 41.1113 50.0025 41.1113Z" fill="#ECECEC"/>
</svg>
