<svg width="100" height="100" viewBox="0 0 100 100" fill="none" xmlns="http://www.w3.org/2000/svg">
<path fill-rule="evenodd" clip-rule="evenodd" d="M0 49.9991C0 22.3856 22.3862 0 49.9997 0C77.6144 0 100 22.3856 100 49.9991C100 77.6156 77.6144 100 49.9997 100C22.3862 100 0 77.6156 0 49.9991ZM21.4888 38.5439C36.8745 33.8743 63.4593 34.7543 79.5763 44.3258C81.7932 45.6453 84.6657 44.9127 85.984 42.6905C87.3011 40.4718 86.5727 37.6017 84.3498 36.2822C65.7956 25.2682 36.4357 24.2329 18.7734 29.5939C16.301 30.345 14.908 32.956 15.6567 35.4284C16.4049 37.8991 19.0176 39.2938 21.4888 38.5439ZM73.6863 59.7861C75.5187 60.9128 77.9177 60.3372 79.0485 58.5025C80.1752 56.6719 79.5984 54.2717 77.766 53.1432C62.3332 43.6589 39.7577 40.99 21.5981 46.5009C19.54 47.1278 18.3775 49.3011 18.9985 51.3622C19.6248 53.4203 21.8023 54.5821 23.8633 53.9594C39.7601 49.134 60.25 51.527 73.6863 59.7861ZM72.9304 72.1172C72.0319 73.5908 70.1135 74.0523 68.6453 73.1543C56.9041 65.9783 42.1257 64.3578 24.7213 68.3331C23.0442 68.7176 21.3724 67.6667 20.9903 65.9902C20.6058 64.313 21.653 62.6413 23.3338 62.2586C42.38 57.9048 58.7174 59.7784 71.8963 67.8315C73.3657 68.7289 73.8284 70.6485 72.9304 72.1172Z" fill="#ECECEC"/>
</svg>
