<svg width="100" height="100" viewBox="0 0 100 100" fill="none" xmlns="http://www.w3.org/2000/svg">
<path fill-rule="evenodd" clip-rule="evenodd" d="M50 0C22.3858 0 0 22.3858 0 50C0 77.6142 22.3858 100 50 100C77.6142 100 100 77.6142 100 50C100 22.3858 77.6142 0 50 0ZM48.6074 42.3707L48.5025 40.6406C48.1877 36.1565 50.9507 32.0607 55.3224 30.4718C56.9312 29.9069 59.6592 29.8362 61.4429 30.3306C62.1423 30.5424 63.4714 31.2486 64.4157 31.8841L66.1294 33.0493L68.018 32.4491C69.0672 32.1313 70.4662 31.6017 71.0957 31.2486C71.6902 30.9308 72.2149 30.7543 72.2149 30.8602C72.2149 31.4604 70.9208 33.5083 69.8366 34.6382C68.3677 36.2271 68.7874 36.3683 71.7602 35.3091C73.5439 34.7088 73.5788 34.7088 73.2291 35.3797C73.0192 35.7328 71.9351 36.9686 70.7809 38.0984C68.8224 40.0404 68.7175 40.2522 68.7175 41.8764C68.7175 44.3833 67.5283 49.609 66.3392 52.4689C64.1359 57.8358 59.4144 63.3793 54.6929 66.1686C48.0478 70.0879 39.1994 71.0765 31.75 68.7814C29.2668 68.0047 25 66.0274 25 65.6743C25 65.5684 26.294 65.4271 27.8679 65.3918C31.1554 65.3212 34.443 64.4032 37.2409 62.779L39.1295 61.6491L36.9611 60.9077C33.8834 59.8484 31.1204 57.4121 30.421 55.1171C30.2111 54.3756 30.2811 54.3403 32.2396 54.3403L34.2681 54.305L32.5544 53.4929C30.5259 52.4689 28.6723 50.7388 27.7629 48.9734C27.0984 47.7023 26.2591 44.4892 26.5039 44.2421C26.5738 44.1362 27.3083 44.348 28.1477 44.6305C30.5609 45.5132 30.8756 45.3013 29.4767 43.8184C26.8536 41.1349 26.0492 37.1451 27.3083 33.3671L27.9028 31.6723L30.2111 33.9673C34.9326 38.5927 40.4935 41.3468 46.8587 42.1589L48.6074 42.3707Z" fill="#ECECEC"/>
</svg>
