<svg width="100" height="100" viewBox="0 0 100 100" fill="none" xmlns="http://www.w3.org/2000/svg">
<path d="M58.125 50L45 42.5V57.5L58.125 50Z" fill="#ECECEC"/>
<path fill-rule="evenodd" clip-rule="evenodd" d="M0 50C0 22.3858 22.3858 0 50 0C77.6142 0 100 22.3858 100 50C100 77.6142 77.6142 100 50 100C22.3858 100 0 77.6142 0 50ZM69.375 33.4375C71.5625 34.0625 73.125 35.625 73.75 37.8125C75 41.875 75 50 75 50C75 50 75 58.125 74.0625 62.1875C73.4375 64.375 71.875 65.9375 69.6875 66.5625C65.625 67.5 50 67.5 50 67.5C50 67.5 34.0625 67.5 30.3125 66.5625C28.125 65.9375 26.5625 64.375 25.9375 62.1875C25 58.125 25 50 25 50C25 50 25 41.875 25.625 37.8125C26.25 35.625 27.8125 34.0625 30 33.4375C34.0625 32.5 49.6875 32.5 49.6875 32.5C49.6875 32.5 65.625 32.5 69.375 33.4375Z" fill="#ECECEC"/>
</svg>
